<svg width="30" height="187" viewBox="0 0 30 187" fill="none" xmlns="http://www.w3.org/2000/svg">
<path d="M28.08 131.386L28.08 147.466L24.48 147.466L24.48 136.146L16.92 136.146L16.92 145.466L13.28 144.866L13.28 136.146L4.59995 136.146L4.59995 148.066L0.999954 148.066L0.999954 131.386L28.08 131.386Z" fill="#95D0FB"/>
<path d="M28.08 108.417C28.08 108.604 28.08 109.031 28.08 109.697C28.1067 110.364 28.12 111.111 28.12 111.937C28.12 112.764 28.12 113.591 28.12 114.417C28.1467 115.244 28.16 115.924 28.16 116.457C28.16 119.764 27.5067 122.177 26.2 123.697C24.92 125.217 23.1067 125.977 20.76 125.977C19.2134 125.977 17.84 125.591 16.64 124.817C15.44 124.044 14.5734 122.777 14.04 121.017C13.6134 121.764 13.0267 122.431 12.28 123.017C11.5334 123.604 10.6134 124.177 9.52003 124.737C8.45337 125.297 7.20003 125.871 5.76003 126.457C4.3467 127.044 2.76003 127.724 1.00003 128.497L1.00003 123.337C3.1067 122.431 4.9067 121.631 6.40003 120.937C7.89337 120.271 9.1067 119.617 10.04 118.977C10.9734 118.337 11.6534 117.644 12.08 116.897C12.5067 116.177 12.72 115.324 12.72 114.337L12.72 113.177L1.00003 113.177L1.00003 108.417L28.08 108.417ZM16.2 113.177L16.2 116.257C16.2 117.751 16.5334 118.897 17.2 119.697C17.8667 120.524 18.8534 120.937 20.16 120.937C20.7467 120.937 21.32 120.857 21.88 120.697C22.44 120.537 22.9334 120.257 23.36 119.857C23.7867 119.484 24.12 118.964 24.36 118.297C24.6267 117.657 24.76 116.844 24.76 115.857L24.76 113.177L16.2 113.177Z" fill="#95D0FB"/>
<path d="M28.4401 92.5384C28.4401 94.5384 28.1201 96.2451 27.4801 97.6584C26.8401 99.0718 25.9334 100.232 24.7601 101.138C23.5867 102.072 22.1467 102.752 20.4401 103.178C18.7601 103.605 16.8667 103.818 14.7601 103.818C12.6801 103.818 10.7734 103.578 9.04006 103.098C7.3334 102.645 5.86673 101.925 4.64006 100.938C3.41339 99.9784 2.45339 98.7518 1.76006 97.2584C1.09339 95.7918 0.760061 94.0451 0.760061 92.0184C0.760061 90.0184 1.05339 88.2984 1.64006 86.8584C2.25339 85.4451 3.13339 84.2718 4.28006 83.3384C5.4534 82.4318 6.86673 81.7651 8.52006 81.3384C10.1734 80.9118 12.0667 80.6984 14.2001 80.6984C16.2801 80.6984 18.1867 80.9251 19.9201 81.3784C21.6801 81.8584 23.1867 82.5784 24.4401 83.5384C25.7201 84.5251 26.7067 85.7651 27.4001 87.2584C28.0934 88.7518 28.4401 90.5118 28.4401 92.5384ZM24.7601 91.9784C24.7601 90.8051 24.4934 89.8318 23.9601 89.0584C23.4534 88.2851 22.7467 87.6584 21.8401 87.1784C20.9334 86.6984 19.8667 86.3518 18.6401 86.1384C17.4134 85.9518 16.0801 85.8584 14.6401 85.8584C13.2801 85.8584 11.9867 85.9518 10.7601 86.1384C9.53339 86.3251 8.4534 86.6584 7.52006 87.1384C6.58673 87.6451 5.84006 88.3251 5.28006 89.1784C4.72006 90.0584 4.44006 91.1918 4.44006 92.5784C4.44006 93.7251 4.6934 94.6851 5.20006 95.4584C5.70673 96.2584 6.40006 96.8984 7.28006 97.3784C8.16006 97.8584 9.20006 98.1918 10.4001 98.3784C11.6267 98.5918 12.9467 98.6984 14.3601 98.6984C15.7201 98.6984 17.0267 98.6051 18.2801 98.4184C19.5334 98.2318 20.6401 97.8851 21.6001 97.3784C22.5601 96.8984 23.3201 96.2184 23.8801 95.3384C24.4667 94.4851 24.7601 93.3651 24.7601 91.9784Z" fill="#95D0FB"/>
<path d="M28.08 65.9953L28.08 70.7553L4.59995 70.7553L4.59995 80.8753L0.999954 80.8753L0.999954 65.9953L28.08 65.9953Z" fill="#95D0FB"/>
<path d="M28.08 44.5891C28.08 44.7757 28.08 45.2024 28.08 45.8691C28.1067 46.5357 28.12 47.2824 28.12 48.1091C28.12 48.9357 28.12 49.7624 28.12 50.5891C28.1467 51.4157 28.16 52.0957 28.16 52.6291C28.16 55.8824 27.4267 58.2824 25.96 59.8291C24.52 61.3757 22.5334 62.1491 20 62.1491C18.7734 62.1491 17.64 61.9357 16.6 61.5091C15.5867 61.0824 14.7067 60.4424 13.96 59.5891C13.2134 58.7624 12.6267 57.7224 12.2 56.4691C11.8 55.2424 11.6 53.8024 11.6 52.1491L11.6 49.3491L1.00003 49.3491L1.00003 44.5891L28.08 44.5891ZM15.16 49.3491L15.16 52.4291C15.16 54.1091 15.6 55.3091 16.48 56.0291C17.36 56.7491 18.48 57.1091 19.84 57.1091C20.4534 57.1091 21.0534 57.0291 21.64 56.8691C22.2267 56.7091 22.7467 56.4291 23.2 56.0291C23.68 55.6557 24.0534 55.1357 24.32 54.4691C24.6134 53.8291 24.76 53.0157 24.76 52.0291C24.76 51.4424 24.76 50.9224 24.76 50.4691C24.76 50.0424 24.7467 49.6691 24.72 49.3491L15.16 49.3491Z" fill="#95D0FB"/>
<path d="M0.999954 18.5078L15.2 26.9078L28.08 19.3078L28.08 24.7078L21.24 28.5078C20.8666 28.7211 20.3866 28.9745 19.8 29.2678C19.24 29.5611 18.6533 29.8545 18.04 30.1478C18.6533 30.4411 19.24 30.7345 19.8 31.0278C20.36 31.3478 20.8266 31.6145 21.2 31.8278L28.08 35.6678L28.08 41.0278L15.16 33.3878L0.999955 41.7878L0.999954 36.3478L8.99995 31.8678C9.37329 31.6545 9.85329 31.3878 10.44 31.0678C11.0533 30.7478 11.6666 30.4411 12.28 30.1478L8.99995 28.4678L0.999954 23.9878L0.999954 18.5078Z" fill="#95D0FB"/>
<path d="M28.08 0.799988L28.08 16.88L24.48 16.88L24.48 5.55999L16.92 5.55999L16.92 14.88L13.28 14.28L13.28 5.55999L4.59995 5.55999L4.59995 17.48L0.999954 17.48L0.999954 0.799988L28.08 0.799988Z" fill="#95D0FB"/>
<path fill-rule="evenodd" clip-rule="evenodd" d="M15.5 160.125C16.3284 160.125 17 160.797 17 161.625V179.754L24.7101 172.044C25.2959 171.458 26.2457 171.458 26.8315 172.044C27.4172 172.629 27.4172 173.579 26.8315 174.165L16.5606 184.436C16.2793 184.717 15.8978 184.875 15.5 184.875C15.1021 184.875 14.7206 184.717 14.4393 184.436L4.16847 174.165C3.58268 173.579 3.58268 172.629 4.16847 172.044C4.75425 171.458 5.704 171.458 6.28979 172.044L14 179.754V161.625C14 160.797 14.6715 160.125 15.5 160.125Z" fill="#95D0FB"/>
</svg>
